<?xml version="1.0" encoding="utf-8"?>
<!-- Generator: Adobe Illustrator 25.0.1, SVG Export Plug-In . SVG Version: 6.00 Build 0)  -->
<svg version="1.1" id="Layer_1" xmlns="http://www.w3.org/2000/svg" xmlns:xlink="http://www.w3.org/1999/xlink" x="0px" y="0px"
	 viewBox="0 0 100 100" style="enable-background:new 0 0 100 100;" xml:space="preserve">
<style type="text/css">
	.st0{fill:#083344;}
	.st1{fill:#ffffff;}
	.st2{fill:none;}
</style>
<path class="st0" d="M43.3,73.3c-3.2-0.6-6.2-1.7-9-3.2v0C37.1,71.6,40.1,72.7,43.3,73.3L43.3,73.3z"/>
<path class="st1" d="M34.3,73l0,23.2l9-16.6l0-3.7C40.1,75.3,37.1,74.3,34.3,73z"/>
<path class="st1" d="M43.3,69.3l0-12.2l0-5.9l0-7.2h7.4h2.6h7.5c2.5,0,4.5-2,4.5-4.5c0-2.5-2-4.5-4.5-4.5H50.7H49h-1h-4.8h-8.1v-8.9
	l-4.8,8.9h0l-4.9,9h8.9l0,21.6C37,67.4,40,68.6,43.3,69.3z"/>
<path class="st0" d="M34.3,68.3l0,1.1c2.8,1.5,5.8,2.6,9,3.2l0-1C40.1,71,37,69.8,34.3,68.3z"/>
<path class="st1" d="M60.8,53.1h-3.4l6.8,8.6l8.1-14.9C69.8,50.6,65.6,53.1,60.8,53.1z"/>
<polygon class="st1" points="70.4,74.6 68.7,74.6 68.7,74.6 62.8,74.6 59.4,70.3 45.9,53.1 43.3,53.1 43.3,51.3 43.3,51.3 
	43.3,57.2 60.5,79 72.2,79 72.4,79 74.3,74.6 "/>
<path class="st2" d="M57.3,53.1h3.4c4.8,0,9-2.5,11.4-6.3l0.8-1.5c0.2-0.4,0.3-0.8,0.5-1.2c0.5-1.4,0.8-2.9,0.8-4.5
	s-0.3-3.1-0.8-4.5c-1.9-5.2-6.9-9-12.7-9H35.5h-0.3l-0.1,0.1v8.9h12.9H49h1.7h10.1c2.5,0,4.5,2,4.5,4.5c0,2.5-2,4.5-4.5,4.5h-7.5
	h-2.6H48h-4.8v7.2v1.8h2.6l13.6,17.2l3.4,4.3h5.9l0,0h1.7h3.9L64.1,61.7L57.3,53.1z"/>
<g>
	<path class="st1" d="M49.8,5.7c-19.1,0-34.5,15.5-34.5,34.5c0,19.1,15.5,34.5,34.5,34.5c1.7,0,3.3-0.1,5-0.4L53,72.2
		c-1.1,0.1-2.1,0.2-3.2,0.2c-17.7,0-32.1-14.4-32.1-32.1c0,0,0,0,0,0c0,17.7,14.4,32.1,32.1,32.1c1.1,0,2.1-0.1,3.2-0.2l-0.5-0.6
		c-0.9,0.1-1.8,0.1-2.7,0.1c-17.4,0-31.5-14.1-31.5-31.5c0-17.4,14.1-31.5,31.5-31.5c17.4,0,31.5,14.1,31.5,31.5
		c0,10.2-4.8,19.2-12.3,25l0.4,0.5c7.6-5.9,12.6-15.1,12.6-25.5c0,0,0,0,0,0c0,10.4-4.9,19.6-12.6,25.5l1.5,1.9
		c8.2-6.3,13.5-16.2,13.5-27.4C84.4,21.2,68.9,5.7,49.8,5.7z"/>
</g>
</svg>
